<?xml version="1.0" standalone="no"?>
<!DOCTYPE svg PUBLIC "-//W3C//DTD SVG 20010904//EN"
 "http://www.w3.org/TR/2001/REC-SVG-20010904/DTD/svg10.dtd">
<svg version="1.0" xmlns="http://www.w3.org/2000/svg"
 width="499.000000pt" height="181.000000pt" viewBox="0 0 499.000000 181.000000"
 preserveAspectRatio="xMidYMid meet">

<g transform="translate(0.000000,181.000000) scale(0.100000,-0.100000)"
fill="#000000" stroke="none">
<path d="M720 1700 c0 -20 -133 -149 -203 -198 -126 -87 -232 -132 -356 -151
-128 -20 -146 -51 -138 -240 4 -93 12 -161 27 -214 85 -316 300 -581 639 -791
l91 -56 78 46 c42 26 79 49 81 50 2 2 -4 13 -13 23 -18 19 -19 19 -81 -19
l-62 -38 -39 22 c-348 197 -587 501 -655 830 -18 88 -26 257 -13 291 9 23 51
41 113 49 112 15 264 85 391 182 60 46 170 153 170 166 0 4 12 8 28 8 21 0 40
-14 80 -59 96 -110 279 -230 417 -274 28 -9 79 -21 115 -26 99 -16 104 -25 97
-186 -2 -71 -8 -137 -11 -146 -5 -11 1 -21 18 -32 l24 -16 11 63 c6 34 11 113
11 174 0 104 -2 112 -25 141 -28 32 -61 45 -140 56 -152 21 -405 175 -500 305
l-37 50 -59 0 c-32 0 -59 -4 -59 -10z"/>
<path d="M730 1504 c-146 -146 -340 -247 -559 -290 -24 -5 -24 -6 -18 -97 13
-179 69 -342 174 -500 67 -102 229 -259 349 -341 l101 -68 31 16 c39 20 45 31
32 56 -10 19 -12 19 -35 4 -23 -15 -27 -14 -93 30 -194 131 -325 277 -416 466
-53 109 -83 219 -88 315 l-3 67 85 24 c153 44 272 109 417 227 l81 66 23 -25
c40 -43 161 -131 244 -179 78 -44 243 -105 287 -105 20 0 21 -3 14 -89 -6 -77
-4 -89 10 -95 9 -4 19 -4 22 -1 9 9 21 98 21 162 1 57 -1 63 -21 67 -211 41
-354 114 -529 267 -43 38 -79 69 -81 68 -2 0 -23 -21 -48 -45z"/>
<path d="M2850 1100 l0 -390 45 0 45 0 0 390 0 390 -45 0 -45 0 0 -390z"/>
<path d="M4740 1341 l0 -149 -57 24 c-128 52 -218 14 -276 -116 -43 -95 -20
-284 41 -343 78 -74 177 -75 266 0 31 26 32 26 93 -30 l32 -30 25 21 26 20
-23 28 c-22 28 -22 34 -25 376 l-3 348 -49 0 -50 0 0 -149z m-26 -175 l26 -16
0 -170 0 -169 -27 -18 c-81 -55 -138 -58 -181 -9 -82 93 -62 328 32 388 37 23
111 20 150 -6z"/>
<path d="M2298 1457 c-185 -64 -282 -200 -282 -392 -1 -142 63 -248 183 -308
39 -20 97 -41 128 -48 68 -14 226 -7 293 13 l45 14 3 152 3 152 -56 0 -55 0 0
-149 0 -149 -57 -6 c-115 -13 -226 25 -293 101 -118 134 -104 403 27 524 94
86 171 97 323 46 41 -14 76 -24 76 -24 1 1 5 16 8 34 7 30 5 32 -31 43 -21 7
-85 14 -143 16 -92 4 -114 2 -172 -19z"/>
<path d="M4182 1434 c-26 -18 -30 -65 -7 -84 38 -32 95 -4 95 46 0 22 -33 54
-55 54 -6 0 -21 -7 -33 -16z"/>
<path d="M3223 1219 c-108 -42 -170 -153 -161 -288 11 -153 112 -241 260 -228
104 9 190 74 223 168 24 67 19 184 -9 245 -52 111 -181 154 -313 103z m183
-62 c18 -19 37 -52 43 -74 14 -50 14 -181 0 -224 -28 -84 -97 -137 -162 -125
-52 10 -83 40 -107 104 -30 79 -25 198 11 269 52 100 149 123 215 50z"/>
<path d="M3620 1228 c0 -13 221 -523 228 -526 10 -3 217 517 208 525 -16 16
-35 -16 -75 -123 -85 -231 -103 -275 -109 -269 -4 3 -40 93 -82 198 l-75 192
-48 3 c-26 2 -47 2 -47 0z"/>
<path d="M4170 970 l0 -260 45 0 45 0 0 260 0 260 -45 0 -45 0 0 -260z"/>
<path d="M1129 912 c-192 -64 -313 -264 -279 -461 31 -176 164 -309 341 -342
173 -32 362 66 442 230 30 62 32 72 32 176 0 103 -2 114 -32 177 -41 88 -113
160 -201 201 -57 27 -81 32 -157 34 -67 2 -104 -2 -146 -15z m286 -69 c75 -38
138 -101 173 -173 24 -48 27 -67 27 -150 0 -88 -3 -101 -33 -162 -39 -79 -92
-130 -180 -171 -128 -60 -278 -35 -387 64 -206 189 -131 528 138 615 26 9 72
13 122 11 66 -3 91 -9 140 -34z"/>
<path d="M1230 740 c0 -31 -4 -40 -17 -40 -10 -1 -29 -7 -43 -15 -23 -12 -27
-11 -52 12 -27 26 -28 26 -48 8 l-20 -18 24 -26 c25 -26 25 -26 8 -74 -16 -45
-19 -47 -54 -47 -34 0 -38 -3 -38 -25 0 -22 4 -25 38 -25 35 0 38 -3 56 -46
l19 -45 -27 -28 c-24 -25 -25 -28 -9 -44 16 -16 19 -15 44 9 l28 27 45 -19
c43 -18 46 -21 46 -56 0 -34 3 -38 25 -38 22 0 25 4 25 35 0 31 4 36 47 55
l46 20 27 -25 27 -25 18 20 c18 20 18 21 -7 47 -24 23 -25 28 -12 52 7 14 15
34 18 44 4 12 16 17 46 17 36 0 40 2 40 25 0 22 -4 25 -38 25 -36 0 -39 3 -59
49 l-20 49 25 26 c25 25 26 27 9 43 -16 17 -19 16 -43 -9 -25 -25 -29 -25 -58
-13 -17 7 -39 16 -48 19 -13 4 -18 16 -18 41 0 31 -3 35 -25 35 -22 0 -25 -4
-25 -40z m103 -107 c38 -19 71 -93 63 -138 -18 -93 -121 -142 -205 -97 -85 46
-93 174 -15 229 50 35 97 37 157 6z"/>
<path d="M1233 574 c-7 -19 20 -49 36 -40 6 4 11 18 11 32 0 17 -5 24 -20 24
-11 0 -23 -7 -27 -16z"/>
<path d="M1168 508 c-8 -21 2 -38 22 -38 19 0 30 17 23 38 -3 6 -13 12 -23 12
-10 0 -20 -6 -22 -12z"/>
<path d="M1274 476 c-9 -24 4 -48 23 -44 12 2 18 12 18 28 0 29 -32 41 -41 16z"/>
<path d="M4070 450 c0 -13 7 -20 20 -20 13 0 20 7 20 20 0 13 -7 20 -20 20
-13 0 -20 -7 -20 -20z"/>
<path d="M2120 305 c0 -148 1 -155 20 -155 19 0 20 7 20 155 0 148 -1 155 -20
155 -19 0 -20 -7 -20 -155z"/>
<path d="M2500 305 c0 -148 1 -155 20 -155 14 0 20 7 20 21 l0 20 26 -20 c31
-24 74 -27 113 -7 34 18 51 54 51 112 0 37 -6 51 -29 75 -37 37 -104 41 -139
9 l-22 -21 0 61 c0 53 -2 60 -20 60 -19 0 -20 -7 -20 -155z m171 26 c58 -58
24 -151 -55 -151 -44 0 -76 37 -76 89 0 40 13 62 45 79 33 18 55 14 86 -17z"/>
<path d="M3080 305 c0 -131 2 -155 15 -155 13 0 15 24 15 155 0 131 -2 155
-15 155 -13 0 -15 -24 -15 -155z"/>
<path d="M4360 404 l0 -56 -25 16 c-34 23 -97 20 -128 -5 -35 -27 -50 -83 -36
-132 19 -69 108 -99 163 -56 l26 20 0 -20 c0 -14 6 -21 20 -21 19 0 20 7 20
155 0 148 -1 155 -20 155 -18 0 -20 -7 -20 -56z m-47 -56 c34 -18 46 -39 47
-81 0 -50 -35 -87 -84 -87 -83 0 -106 125 -31 168 26 15 41 15 68 0z"/>
<path d="M1857 354 c-50 -49 -44 -141 11 -185 32 -25 101 -22 132 6 20 18 20
17 20 -23 0 -55 -26 -82 -78 -82 -26 0 -45 7 -57 20 -21 24 -45 26 -45 5 0
-24 60 -55 108 -55 35 0 49 6 73 29 l29 29 0 141 c0 119 -2 141 -15 141 -8 0
-15 -7 -15 -15 0 -8 -4 -15 -9 -15 -5 0 -14 7 -21 15 -8 9 -30 15 -60 15 -38
0 -53 -5 -73 -26z m135 -24 c27 -27 30 -36 25 -73 -10 -72 -83 -103 -134 -55
-40 38 -28 129 20 148 38 15 58 11 89 -20z"/>
<path d="M2249 349 c-24 -26 -29 -40 -29 -81 0 -44 4 -54 34 -84 38 -38 85
-45 134 -20 46 24 70 88 52 141 -17 51 -53 75 -112 75 -43 0 -54 -4 -79 -31z
m120 -4 c74 -38 44 -165 -39 -165 -62 0 -98 69 -69 134 20 42 63 55 108 31z"/>
<path d="M2809 351 c-24 -24 -29 -38 -29 -76 0 -25 6 -58 14 -74 27 -51 103
-67 150 -30 l26 20 0 -20 c0 -14 6 -21 20 -21 19 0 20 7 20 115 0 108 -1 115
-20 115 -11 0 -20 -7 -20 -16 0 -14 -2 -14 -22 0 -12 9 -42 16 -66 16 -35 0
-49 -6 -73 -29z m144 -22 c25 -31 23 -97 -5 -126 -49 -52 -138 -12 -138 62 0
53 48 100 93 91 18 -3 40 -16 50 -27z"/>
<path d="M3319 351 c-24 -24 -29 -38 -29 -76 0 -83 39 -125 116 -125 27 0 43
8 67 32 28 28 30 33 14 36 -11 2 -25 -5 -33 -17 -11 -15 -26 -21 -54 -21 -54
0 -84 38 -77 99 6 50 20 68 64 77 26 5 37 1 58 -20 26 -26 55 -35 55 -16 0 6
-11 22 -25 35 -19 20 -34 25 -75 25 -44 0 -56 -5 -81 -29z"/>
<path d="M3579 349 c-24 -26 -29 -40 -29 -81 0 -44 4 -54 34 -84 38 -38 85
-45 134 -20 46 24 70 88 52 141 -17 51 -53 75 -112 75 -43 0 -54 -4 -79 -31z
m120 -4 c74 -38 44 -165 -39 -165 -62 0 -98 69 -69 134 20 42 63 55 108 31z"/>
<path d="M3811 373 c0 -4 19 -55 43 -113 58 -145 69 -146 124 -5 47 117 48
125 28 125 -9 0 -27 -34 -47 -90 -17 -50 -35 -93 -39 -95 -4 -2 -23 37 -41 88
-23 62 -40 93 -52 95 -9 2 -17 0 -16 -5z"/>
<path d="M4070 265 c0 -108 1 -115 20 -115 19 0 20 7 20 115 0 108 -1 115 -20
115 -19 0 -20 -7 -20 -115z"/>
</g>
</svg>
