<svg width="239" height="85" viewBox="0 0 239 85" fill="none" xmlns="http://www.w3.org/2000/svg">
<path d="M34.2064 1.46946C34.2064 2.46394 27.703 8.8783 24.2801 11.3148C18.119 15.6407 12.9359 17.8783 6.87254 18.8231C0.613622 19.8175 -0.266538 21.359 0.124644 30.7568C0.320235 35.3811 0.711418 38.7623 1.44488 41.3976C5.60119 57.1104 16.1142 70.2872 32.6906 80.7291L37.1403 83.5137L40.9543 81.2264C43.008 79.9336 44.8172 78.7899 44.915 78.7402C45.0128 78.6407 44.7194 78.0938 44.2793 77.5965C43.3992 76.6518 43.3503 76.6518 40.3186 78.5413L37.287 80.4308L35.3799 79.3369C18.3635 69.5413 6.67695 54.4253 3.3519 38.0662C2.47174 33.6905 2.08056 25.2871 2.71623 23.5965C3.15631 22.4529 5.21001 21.5579 8.24167 21.1601C13.7182 20.4142 21.1507 16.9335 27.3607 12.1103C30.2946 9.82305 35.6733 4.50261 35.6733 3.8562C35.6733 3.6573 36.2601 3.4584 37.0425 3.4584C38.0693 3.4584 38.9984 4.15454 40.9543 6.39211C45.6485 11.8617 54.5968 17.8286 61.3447 20.0164C62.7138 20.4639 65.2076 21.0606 66.9679 21.3092C71.8088 22.1048 72.0533 22.5523 71.711 30.5579C71.6132 34.0882 71.3198 37.37 71.1731 37.8175C70.9286 38.3645 71.222 38.8617 72.0533 39.4087L73.2268 40.2043L73.7647 37.0717C74.0581 35.3811 74.3026 31.4529 74.3026 28.4197C74.3026 23.2485 74.2048 22.8507 73.0801 21.4087C71.711 19.8175 70.0974 19.1711 66.2344 18.6242C58.802 17.58 46.4308 9.9225 41.7855 3.4584L39.9763 0.972221H37.0914C35.5266 0.972221 34.2064 1.17111 34.2064 1.46946Z" fill="white"/>
<path d="M34.6954 11.2155C27.5563 18.4752 18.0701 23.4973 7.36151 25.6354C6.18797 25.884 6.18797 25.9337 6.48135 30.4586C7.11702 39.3591 9.8553 47.4641 14.9896 55.3205C18.2657 60.3923 26.1872 68.1989 32.0549 72.2763L36.9936 75.6575L38.5094 74.8619C40.4164 73.8674 40.7098 73.3205 40.0741 72.0774C39.5852 71.1326 39.4874 71.1326 38.3627 71.8785C37.2381 72.6243 37.0425 72.5746 33.8152 70.3868C24.329 63.8729 17.9234 56.6133 13.4737 47.2155C10.8822 41.7956 9.41522 36.326 9.17073 31.5525L9.02404 28.221L13.1804 27.0276C20.6617 24.8398 26.4806 21.6078 33.5707 15.7404L37.5315 12.4586L38.6561 13.7017C40.612 15.8398 46.5287 20.2155 50.5872 22.6022C54.4012 24.7901 62.4693 27.8232 64.6208 27.8232C65.5988 27.8232 65.6477 27.9724 65.3054 32.2486C65.012 36.0774 65.1098 36.6741 65.7944 36.9724C66.2345 37.1713 66.7234 37.1713 66.8701 37.0221C67.3102 36.5746 67.897 32.1492 67.897 28.9669C67.9459 26.1326 67.8481 25.8343 66.8701 25.6354C56.5527 23.5967 49.5603 19.9669 41.0032 12.3591C38.9006 10.4696 37.1403 8.9282 37.0425 8.97793C36.9447 8.97793 35.9178 10.0221 34.6954 11.2155Z" fill="white"/>
<path d="M138.359 31.3038V50.696H140.559H142.76V31.3038V11.9115H140.559H138.359V31.3038Z" fill="white"/>
<path d="M230.776 19.3204V26.7293L227.988 25.5359C221.729 22.9503 217.329 24.8398 214.493 31.3039C212.39 36.0276 213.515 45.4254 216.497 48.3591C220.311 52.0387 225.152 52.0884 229.504 48.3591C231.02 47.0663 231.069 47.0663 234.052 49.8508L235.616 51.3425L236.839 50.2983L238.11 49.3039L236.986 47.9116C235.91 46.5193 235.91 46.221 235.763 29.2155L235.616 11.9116H233.22H230.776V19.3204ZM229.504 28.0221L230.776 28.8177V37.2707V45.674L229.455 46.569C225.495 49.3039 222.707 49.453 220.605 47.0166C216.595 42.3923 217.573 30.7072 222.17 27.7237C223.979 26.5801 227.597 26.7293 229.504 28.0221Z" fill="white"/>
<path d="M111.367 13.5523C102.321 16.7346 97.5779 23.4971 97.5779 33.044C97.529 40.1048 100.658 45.3755 106.526 48.359C108.433 49.3534 111.269 50.3976 112.785 50.7457C116.11 51.4418 123.836 51.0938 127.112 50.0993L129.313 49.4032L129.459 41.8451L129.606 34.2871H126.868H124.178V41.696V49.1048L121.391 49.4032C115.768 50.0496 110.34 48.1601 107.064 44.3811C101.294 37.7181 101.979 24.3424 108.384 18.3258C112.981 14.0496 116.746 13.5026 124.178 16.0385C126.183 16.7346 127.895 17.2319 127.895 17.2319C127.943 17.1822 128.139 16.4363 128.286 15.5413C128.628 14.0496 128.53 13.9501 126.77 13.4031C125.743 13.0551 122.614 12.707 119.778 12.6076C115.279 12.4087 114.203 12.5081 111.367 13.5523Z" fill="white"/>
<path d="M203.491 14.6962C202.219 15.5912 202.024 17.9282 203.148 18.873C205.006 20.4641 207.794 19.0719 207.794 16.5857C207.794 15.4918 206.18 13.9006 205.104 13.9006C204.811 13.9006 204.077 14.2487 203.491 14.6962Z" fill="white"/>
<path d="M156.598 25.3866C151.317 27.475 148.285 32.9943 148.725 39.707C149.263 47.3148 154.202 51.6905 161.438 51.044C166.524 50.5965 170.729 47.3645 172.343 42.6905C173.516 39.359 173.272 33.5413 171.903 30.5081C169.36 24.9888 163.052 22.8507 156.598 25.3866ZM165.546 28.4695C166.426 29.4142 167.355 31.0551 167.649 32.149C168.333 34.6352 168.333 41.149 167.649 43.2871C166.279 47.4639 162.905 50.0993 159.727 49.5026C157.184 49.0054 155.669 47.5137 154.495 44.3313C153.028 40.4032 153.273 34.486 155.033 30.9557C157.576 25.9833 162.319 24.8396 165.546 28.4695Z" fill="white"/>
<path d="M176.01 24.9391C176.01 25.5856 186.816 50.9447 187.159 51.0938C187.648 51.243 197.77 25.3867 197.329 24.9889C196.547 24.1933 195.618 25.7844 193.662 31.1049C189.506 42.5911 188.626 44.7789 188.332 44.4806C188.137 44.3314 186.376 39.8563 184.323 34.6353L180.655 25.0883L178.308 24.9391C177.037 24.8397 176.01 24.8397 176.01 24.9391Z" fill="white"/>
<path d="M202.904 37.7679V50.696H205.104H207.305V37.7679V24.8397H205.104H202.904V37.7679Z" fill="white"/>
<path d="M54.2056 40.652C44.8172 43.8343 38.9006 53.7791 40.5631 63.5746C42.079 72.326 48.5824 78.9393 57.2373 80.5802C65.6966 82.1713 74.9383 77.2984 78.8501 69.1437C80.317 66.0608 80.4148 65.5636 80.4148 60.3923C80.4148 55.2708 80.317 54.7238 78.8501 51.5912C76.8453 47.2155 73.3246 43.6354 69.0216 41.5967C66.2345 40.2542 65.0609 40.0056 61.3447 39.9061C58.0685 39.8067 56.2593 40.0056 54.2056 40.652ZM68.1904 44.0829C71.8577 45.9724 74.9383 49.105 76.6497 52.6851C77.8232 55.0719 77.9699 56.0166 77.9699 60.1437C77.9699 64.5194 77.8232 65.1658 76.3563 68.1989C74.4493 72.1271 71.8577 74.663 67.5547 76.7017C61.2958 79.6851 53.9611 78.442 48.6313 73.5194C38.5583 64.1216 42.2256 47.2652 55.3792 42.9393C56.6505 42.4918 58.8998 42.2929 61.3447 42.3923C64.5719 42.5415 65.7944 42.8398 68.1904 44.0829Z" fill="white"/>
<path d="M59.1443 49.2044C59.1443 50.7459 58.9487 51.1934 58.313 51.1934C57.824 51.2431 56.895 51.5415 56.2104 51.9392C55.0858 52.5359 54.8902 52.4862 53.6677 51.3426C52.3475 50.0497 52.2986 50.0497 51.3206 50.9448L50.3427 51.8398L51.5162 53.1326C52.7387 54.4254 52.7387 54.4254 51.9074 56.8122C51.125 59.0497 50.9784 59.1492 49.2669 59.1492C47.6044 59.1492 47.4088 59.2984 47.4088 60.3923C47.4088 61.4862 47.6044 61.6354 49.2669 61.6354C50.9784 61.6354 51.125 61.7846 52.0052 63.9227L52.9343 66.1602L51.614 67.5525C50.4405 68.7956 50.3916 68.9448 51.1739 69.7404C51.9563 70.5359 52.103 70.4862 53.3254 69.2928L54.6946 67.9503L56.895 68.8951C58.9976 69.7901 59.1443 69.9393 59.1443 71.6796C59.1443 73.3702 59.291 73.5691 60.3667 73.5691C61.4425 73.5691 61.5892 73.3702 61.5892 71.8288C61.5892 70.2873 61.7848 70.0387 63.8874 69.094L66.1367 68.0995L67.4569 69.3426L68.7771 70.5857L69.6573 69.5912C70.5375 68.5967 70.5375 68.547 69.315 67.2542C68.1415 66.1105 68.0926 65.8619 68.7282 64.6685C69.0705 63.9724 69.4617 62.9779 69.6084 62.4807C69.804 61.884 70.3908 61.6354 71.8577 61.6354C73.618 61.6354 73.8136 61.5359 73.8136 60.3923C73.8136 59.2984 73.618 59.1492 71.9555 59.1492C70.1952 59.1492 70.0485 59 69.0705 56.7127L68.0926 54.2763L69.315 52.9834C70.5375 51.7404 70.5864 51.6409 69.7551 50.8453C68.9727 50 68.826 50.0497 67.6525 51.2928C66.4301 52.5359 66.2345 52.5359 64.8164 51.9392C63.9852 51.5912 62.9094 51.1437 62.4693 50.9945C61.8337 50.7956 61.5892 50.1989 61.5892 48.9558C61.5892 47.4144 61.4425 47.2155 60.3667 47.2155C59.291 47.2155 59.1443 47.4144 59.1443 49.2044ZM64.1808 54.5249C66.0389 55.4696 67.6525 59.1492 67.2613 61.3868C66.3812 66.0111 61.3447 68.4475 57.2373 66.21C53.081 63.9227 52.6898 57.558 56.5038 54.8232C58.9487 53.0829 61.2469 52.9834 64.1808 54.5249Z" fill="white"/>
<path d="M59.291 57.4586C58.9487 58.4033 60.269 59.895 61.0513 59.4475C61.3447 59.2486 61.5892 58.5525 61.5892 57.8564C61.5892 57.0111 61.3447 56.663 60.6113 56.663C60.0734 56.663 59.4866 57.0111 59.291 57.4586Z" fill="white"/>
<path d="M56.1126 60.7404C55.7215 61.7846 56.2104 62.6299 57.1884 62.6299C58.1174 62.6299 58.6553 61.7846 58.313 60.7404C58.1663 60.442 57.6774 60.1437 57.1884 60.1437C56.6994 60.1437 56.2104 60.442 56.1126 60.7404Z" fill="white"/>
<path d="M61.2958 62.3313C60.8557 63.5247 61.4914 64.7181 62.4205 64.5192C63.0072 64.4197 63.3006 63.9225 63.3006 63.1269C63.3006 61.6849 61.7359 61.0882 61.2958 62.3313Z" fill="white"/>
<path d="M198.014 63.6242C198.014 64.2706 198.356 64.6187 198.992 64.6187C199.628 64.6187 199.97 64.2706 199.97 63.6242C199.97 62.9778 199.628 62.6297 198.992 62.6297C198.356 62.6297 198.014 62.9778 198.014 63.6242Z" fill="white"/>
<path d="M102.663 70.8341C102.663 78.1932 102.712 78.5413 103.641 78.5413C104.57 78.5413 104.619 78.1932 104.619 70.8341C104.619 63.475 104.57 63.1269 103.641 63.1269C102.712 63.1269 102.663 63.475 102.663 70.8341Z" fill="white"/>
<path d="M121.244 70.8341C121.244 78.1932 121.293 78.5413 122.222 78.5413C122.907 78.5413 123.2 78.1932 123.2 77.4971V76.5026L124.472 77.4971C125.988 78.6904 128.09 78.8396 129.997 77.8451C131.66 76.9501 132.491 75.16 132.491 72.2761C132.491 70.4363 132.198 69.7402 131.073 68.5468C129.264 66.707 125.988 66.5081 124.276 68.0993L123.2 69.1435V66.1103C123.2 63.475 123.103 63.1269 122.222 63.1269C121.293 63.1269 121.244 63.475 121.244 70.8341ZM129.606 69.5413C132.442 72.4252 130.78 77.0495 126.917 77.0495C124.765 77.0495 123.2 75.2098 123.2 72.6241C123.2 70.6352 123.836 69.5413 125.401 68.696C127.014 67.8009 128.09 67.9998 129.606 69.5413Z" fill="white"/>
<path d="M149.605 70.8341C149.605 77.3479 149.703 78.5413 150.339 78.5413C150.974 78.5413 151.072 77.3479 151.072 70.8341C151.072 64.3203 150.974 63.1269 150.339 63.1269C149.703 63.1269 149.605 64.3203 149.605 70.8341Z" fill="white"/>
<path d="M212.194 65.9114V68.696L210.972 67.9004C209.309 66.7567 206.229 66.9059 204.713 68.149C203.002 69.4915 202.268 72.2761 202.953 74.7125C203.882 78.1435 208.234 79.6352 210.923 77.4971L212.194 76.5026V77.4971C212.194 78.1932 212.488 78.5413 213.172 78.5413C214.101 78.5413 214.15 78.1932 214.15 70.8341C214.15 63.475 214.101 63.1269 213.172 63.1269C212.292 63.1269 212.194 63.475 212.194 65.9114ZM209.896 68.696C211.559 69.591 212.145 70.6352 212.194 72.7236C212.194 75.2098 210.483 77.0495 208.087 77.0495C204.028 77.0495 202.904 70.8341 206.571 68.696C207.842 67.9501 208.576 67.9501 209.896 68.696Z" fill="white"/>
<path d="M89.8032 68.3977C87.3583 70.8342 87.6517 75.4088 90.341 77.5966C91.9058 78.8397 95.2797 78.6905 96.7956 77.2983C97.7735 76.4033 97.7735 76.453 97.7735 78.4419C97.7735 81.1767 96.5022 82.5193 93.9595 82.5193C92.6881 82.5193 91.7591 82.1712 91.1723 81.5248C90.1454 80.3314 88.9719 80.232 88.9719 81.2762C88.9719 82.4696 91.9058 84.011 94.2529 84.011C95.9643 84.011 96.6489 83.7126 97.8224 82.569L99.2404 81.127V74.116C99.2404 68.1988 99.1427 67.1049 98.507 67.1049C98.1158 67.1049 97.7735 67.453 97.7735 67.8508C97.7735 68.2486 97.5779 68.5966 97.3334 68.5966C97.0889 68.5966 96.6489 68.2486 96.3066 67.8508C95.9154 67.4033 94.8396 67.1049 93.3727 67.1049C91.5146 67.1049 90.7811 67.3535 89.8032 68.3977ZM96.4044 69.5911C97.7246 70.9336 97.8713 71.3812 97.6268 73.2209C97.1378 76.801 93.5683 78.3425 91.0745 75.9557C89.1186 74.0662 89.7054 69.5414 92.0525 68.5966C93.9106 67.8508 94.8885 68.0497 96.4044 69.5911Z" fill="white"/>
<path d="M108.971 68.6464C107.798 69.9392 107.553 70.6354 107.553 72.674C107.553 74.8619 107.749 75.3591 109.216 76.8508C111.074 78.7403 113.372 79.0884 115.768 77.8453C118.017 76.6519 119.191 73.4696 118.311 70.8343C117.479 68.2983 115.719 67.105 112.834 67.105C110.731 67.105 110.194 67.3039 108.971 68.6464ZM114.839 68.8453C118.457 70.7348 116.99 77.0497 112.932 77.0497C109.9 77.0497 108.14 73.6188 109.558 70.3867C110.536 68.2983 112.638 67.6519 114.839 68.8453Z" fill="white"/>
<path d="M136.354 68.5468C135.18 69.7402 134.936 70.4363 134.936 72.3258C134.936 73.5689 135.229 75.2098 135.62 76.0054C136.941 78.5413 140.657 79.3368 142.955 77.4971L144.226 76.5026V77.4971C144.226 78.1932 144.52 78.5413 145.204 78.5413C146.133 78.5413 146.182 78.1932 146.182 72.823C146.182 67.4529 146.133 67.1048 145.204 67.1048C144.667 67.1048 144.226 67.4529 144.226 67.9004C144.226 68.5965 144.129 68.5965 143.151 67.9004C142.564 67.4529 141.097 67.1048 139.923 67.1048C138.212 67.1048 137.527 67.4032 136.354 68.5468ZM143.395 69.6407C144.618 71.1822 144.52 74.4639 143.151 75.9059C140.755 78.4915 136.403 76.5026 136.403 72.823C136.403 70.1877 138.75 67.8507 140.95 68.2982C141.83 68.4474 142.906 69.0938 143.395 69.6407Z" fill="white"/>
<path d="M161.292 68.5468C160.118 69.7402 159.874 70.4363 159.874 72.3258C159.874 76.4529 161.781 78.5413 165.546 78.5413C166.866 78.5413 167.649 78.1435 168.822 76.9501C170.191 75.5578 170.289 75.3092 169.507 75.16C168.969 75.0606 168.284 75.4087 167.893 76.0054C167.355 76.7512 166.622 77.0495 165.253 77.0495C162.612 77.0495 161.145 75.16 161.487 72.1269C161.781 69.6407 162.465 68.7457 164.617 68.2982C165.888 68.0496 166.426 68.2485 167.453 69.2927C168.724 70.5855 170.142 71.033 170.142 70.0882C170.142 69.7899 169.604 68.9943 168.92 68.3479C167.991 67.3534 167.257 67.1048 165.253 67.1048C163.101 67.1048 162.514 67.3534 161.292 68.5468Z" fill="white"/>
<path d="M174.005 68.6464C172.832 69.9392 172.587 70.6354 172.587 72.674C172.587 74.8619 172.783 75.3591 174.25 76.8508C176.108 78.7403 178.406 79.0884 180.802 77.8453C183.051 76.6519 184.225 73.4696 183.345 70.8343C182.513 68.2983 180.753 67.105 177.868 67.105C175.766 67.105 175.228 67.3039 174.005 68.6464ZM179.873 68.8453C183.491 70.7348 182.024 77.0497 177.966 77.0497C174.934 77.0497 173.174 73.6188 174.592 70.3867C175.57 68.2983 177.673 67.6519 179.873 68.8453Z" fill="white"/>
<path d="M185.35 67.453C185.35 67.6519 186.279 70.1878 187.452 73.0718C190.288 80.2817 190.826 80.3314 193.515 73.3204C195.814 67.5027 195.863 67.1049 194.885 67.1049C194.445 67.1049 193.564 68.7955 192.586 71.5801C191.755 74.0663 190.875 76.2044 190.679 76.3038C190.484 76.4033 189.555 74.464 188.675 71.9281C187.55 68.8453 186.719 67.3038 186.132 67.2044C185.692 67.1049 185.301 67.2044 185.35 67.453Z" fill="white"/>
<path d="M198.014 72.823C198.014 78.1932 198.063 78.5413 198.992 78.5413C199.921 78.5413 199.97 78.1932 199.97 72.823C199.97 67.4529 199.921 67.1048 198.992 67.1048C198.063 67.1048 198.014 67.4529 198.014 72.823Z" fill="white"/>
</svg>
